<svg width="24" height="24" viewBox="0 0 24 24" fill="none" xmlns="http://www.w3.org/2000/svg">
<path fill-rule="evenodd" clip-rule="evenodd" d="M3.99365 5.74863C3.99365 5.38965 4.28467 5.09863 4.64365 5.09863L19.3562 5.09863C19.7152 5.09863 20.0062 5.38965 20.0062 5.74863C20.0062 6.10762 19.7152 6.39863 19.3562 6.39863L4.64365 6.39863C4.28467 6.39863 3.99365 6.10762 3.99365 5.74863Z" fill="#626F84"/>
<path fill-rule="evenodd" clip-rule="evenodd" d="M3.99365 18.3648C3.99365 18.0059 4.28467 17.7148 4.64365 17.7148L19.3562 17.7148C19.7152 17.7148 20.0062 18.0059 20.0062 18.3648C20.0062 18.7238 19.7152 19.0148 19.3562 19.0148L4.64365 19.0148C4.28467 19.0148 3.99365 18.7238 3.99365 18.3648Z" fill="#626F84"/>
<path fill-rule="evenodd" clip-rule="evenodd" d="M3.99369 12C3.99369 11.641 4.28471 11.35 4.64369 11.35L19.3562 11.35C19.7152 11.35 20.0062 11.641 20.0062 12C20.0062 12.359 19.7152 12.65 19.3562 12.65L4.64369 12.65C4.28471 12.65 3.99369 12.359 3.99369 12Z" fill="#626F84"/>
</svg>
